<?xml version="1.0" standalone="no"?><svg xmlns:xlink="http://www.w3.org/1999/xlink" xmlns="http://www.w3.org/2000/svg" viewBox="0 0 1000 545.449287998968" preserveAspectRatio="xMaxYMax slice"><g transform="scale(1.482872085970992)"><rect x="0" y="0" width="735.6659999999999" height="429.13849999999996" fill="#ffffff"/><rect x="0" y="0" width="61.305499999999995" height="61.305499999999995" fill="#ffffff"/><rect x="0" y="0" width="30.65" height="30.65" fill="#9dcafe"/><polygon points="30.65,0 30.65,30.65 0,30.65" fill="#b2d5fe"/><rect x="30.65" y="0" width="30.65" height="30.65" fill="#c9e2ff"/><polygon points="30.65,0 61.3,0 61.3,30.65" fill="#e3fffd"/><rect x="0" y="30.65" width="30.65" height="30.65" fill="#55fff1"/><polygon points="0,30.65 30.65,61.3 0,61.3" fill="#c4fffa"/><rect x="30.65" y="30.65" width="30.65" height="30.65" fill="#d7fffc"/><polygon points="30.65,30.65 61.3,30.65 30.65,61.3" fill="#6efff3"/><rect x="61.305499999999995" y="0" width="61.305499999999995" height="61.305499999999995" fill="#ffffff"/><rect x="61.31" y="0" width="30.65" height="30.65" fill="#8ec2fe"/><polygon points="61.31,0 91.96000000000001,0 61.31,30.65" fill="#c2deff"/><rect x="91.96" y="0" width="30.65" height="30.65" fill="#e8f3ff"/><polygon points="91.96,0 122.60999999999999,0 91.96,30.65" fill="#b8fff9"/><rect x="61.31" y="30.65" width="30.65" height="30.65" fill="#d8eaff"/><polygon points="91.96000000000001,30.65 91.96000000000001,61.3 61.31,61.3" fill="#e0fffd"/><rect x="91.96" y="30.65" width="30.65" height="30.65" fill="#c2deff"/><polygon points="122.60999999999999,30.65 122.60999999999999,61.3 91.96,61.3" fill="#a0cbfe"/><rect x="122.61" y="0" width="61.31" height="61.31" fill="#affff9"/><polygon points="122.61,0 183.92000000000002,61.31 122.61,61.31" fill="#93c5fe"/><rect x="183.92" y="0" width="61.31" height="61.31" fill="#c8fffb"/><polygon points="183.92,0 245.23,61.31 183.92,61.31" fill="#c8e1ff"/><rect x="245.22" y="0" width="61.31" height="61.31" fill="#add3fe"/><polygon points="245.22,0 306.53,0 306.53,61.31" fill="#f2fffe"/><rect x="306.5275" y="0" width="61.305499999999995" height="61.305499999999995" fill="#ffffff"/><rect x="306.53" y="0" width="30.65" height="30.65" fill="#d0e5ff"/><polygon points="337.17999999999995,0 337.17999999999995,30.65 306.53,30.65" fill="#e8f2ff"/><rect x="337.18" y="0" width="30.65" height="30.65" fill="#cfe5ff"/><polygon points="337.18,0 367.83,30.65 337.18,30.65" fill="#95c5fe"/><rect x="306.53" y="30.65" width="30.65" height="30.65" fill="#faffff"/><polygon points="306.53,30.65 337.17999999999995,30.65 337.17999999999995,61.3" fill="#b0d4fe"/><rect x="337.18" y="30.65" width="30.65" height="30.65" fill="#90fff6"/><polygon points="337.18,30.65 367.83,30.65 337.18,61.3" fill="#ebfffd"/><rect x="367.83" y="0" width="61.31" height="61.31" fill="#72fff4"/><polygon points="367.83,0 429.14,0 367.83,61.31" fill="#a0fff7"/><rect x="429.14" y="0" width="61.31" height="61.31" fill="#dbebff"/><polygon points="490.45,0 490.45,61.31 429.14,61.31" fill="#8ec2fe"/><rect x="490.44399999999996" y="0" width="61.305499999999995" height="61.305499999999995" fill="#ffffff"/><rect x="490.44" y="0" width="30.65" height="30.65" fill="#a2fff7"/><polygon points="490.44,0 521.09,30.65 490.44,30.65" fill="#cce4ff"/><rect x="521.1" y="0" width="30.65" height="30.65" fill="#87fff5"/><polygon points="521.1,0 551.75,30.65 521.1,30.65" fill="#7bfff4"/><rect x="490.44" y="30.65" width="30.65" height="30.65" fill="#daebff"/><polygon points="521.09,30.65 521.09,61.3 490.44,61.3" fill="#53fff1"/><rect x="521.1" y="30.65" width="30.65" height="30.65" fill="#c9e2ff"/><polygon points="521.1,30.65 551.75,30.65 551.75,61.3" fill="#cee5ff"/><rect x="551.7494999999999" y="0" width="61.305499999999995" height="61.305499999999995" fill="#ffffff"/><rect x="551.75" y="0" width="30.65" height="30.65" fill="#a2fff7"/><polygon points="551.75,0 582.4,0 582.4,30.65" fill="#daebff"/><rect x="582.4" y="0" width="30.65" height="30.65" fill="#a7cffe"/><polygon points="613.05,0 613.05,30.65 582.4,30.65" fill="#7db8fe"/><rect x="551.75" y="30.65" width="30.65" height="30.65" fill="#daebff"/><polygon points="551.75,30.65 582.4,30.65 551.75,61.3" fill="#b7d8fe"/><rect x="582.4" y="30.65" width="30.65" height="30.65" fill="#bbfffa"/><polygon points="582.4,30.65 613.05,61.3 582.4,61.3" fill="#b6d7fe"/><rect x="613.055" y="0" width="61.305499999999995" height="61.305499999999995" fill="#ffffff"/><rect x="613.05" y="0" width="30.65" height="30.65" fill="#bcdbfe"/><polygon points="643.6999999999999,0 643.6999999999999,30.65 613.05,30.65" fill="#9cfff7"/><rect x="643.71" y="0" width="30.65" height="30.65" fill="#f2fffe"/><polygon points="643.71,0 674.36,0 674.36,30.65" fill="#92fff6"/><rect x="613.05" y="30.65" width="30.65" height="30.65" fill="#9dcafe"/><polygon points="613.05,30.65 643.6999999999999,61.3 613.05,61.3" fill="#80fff5"/><rect x="643.71" y="30.65" width="30.65" height="30.65" fill="#a1ccfe"/><polygon points="643.71,30.65 674.36,30.65 643.71,61.3" fill="#d7eaff"/><rect x="674.3605" y="0" width="61.305499999999995" height="61.305499999999995" fill="#ffffff"/><rect x="674.36" y="0" width="30.65" height="30.65" fill="#d8eaff"/><polygon points="674.36,0 705.01,0 705.01,30.65" fill="#add2fe"/><rect x="705.01" y="0" width="30.65" height="30.65" fill="#f2f8ff"/><polygon points="705.01,0 735.66,0 705.01,30.65" fill="#dbfffc"/><rect x="674.36" y="30.65" width="30.65" height="30.65" fill="#85fff5"/><polygon points="705.01,30.65 705.01,61.3 674.36,61.3" fill="#befffa"/><rect x="705.01" y="30.65" width="30.65" height="30.65" fill="#87befe"/><polygon points="705.01,30.65 735.66,61.3 705.01,61.3" fill="#87fff5"/><rect x="0" y="61.305499999999995" width="61.305499999999995" height="61.305499999999995" fill="#ffffff"/><rect x="0" y="61.31" width="30.65" height="30.65" fill="#fafcff"/><polygon points="0,61.31 30.65,61.31 30.65,91.96000000000001" fill="#c8e1ff"/><rect x="30.65" y="61.31" width="30.65" height="30.65" fill="#e3f0ff"/><polygon points="30.65,61.31 61.3,61.31 30.65,91.96000000000001" fill="#cbe3ff"/><rect x="0" y="91.96" width="30.65" height="30.65" fill="#b2fff9"/><polygon points="30.65,91.96 30.65,122.60999999999999 0,122.60999999999999" fill="#d3e7ff"/><rect x="30.65" y="91.96" width="30.65" height="30.65" fill="#89bffe"/><polygon points="30.65,91.96 61.3,122.60999999999999 30.65,122.60999999999999" fill="#a6fff8"/><rect x="61.31" y="61.31" width="61.31" height="61.31" fill="#f7fbff"/><polygon points="61.31,61.31 122.62,122.62 61.31,122.62" fill="#e1fffd"/><rect x="122.61099999999999" y="61.305499999999995" width="61.305499999999995" height="61.305499999999995" fill="#ffffff"/><rect x="122.61" y="61.31" width="30.65" height="30.65" fill="#eff6ff"/><polygon points="122.61,61.31 153.26,61.31 153.26,91.96000000000001" fill="#b9d9fe"/><rect x="153.26" y="61.31" width="30.65" height="30.65" fill="#7efff5"/><polygon points="153.26,61.31 183.91,91.96000000000001 153.26,91.96000000000001" fill="#a3cdfe"/><rect x="122.61" y="91.96" width="30.65" height="30.65" fill="#eef6ff"/><polygon points="153.26,91.96 153.26,122.60999999999999 122.61,122.60999999999999" fill="#7eb9fe"/><rect x="153.26" y="91.96" width="30.65" height="30.65" fill="#bbdafe"/><polygon points="153.26,91.96 183.91,122.60999999999999 153.26,122.60999999999999" fill="#91fff6"/><rect x="183.91649999999998" y="61.305499999999995" width="61.305499999999995" height="61.305499999999995" fill="#ffffff"/><rect x="183.92" y="61.31" width="30.65" height="30.65" fill="#ebfffd"/><polygon points="183.92,61.31 214.57,91.96000000000001 183.92,91.96000000000001" fill="#e2fffd"/><rect x="214.57" y="61.31" width="30.65" height="30.65" fill="#a4fff8"/><polygon points="245.22,61.31 245.22,91.96000000000001 214.57,91.96000000000001" fill="#89fff5"/><rect x="183.92" y="91.96" width="30.65" height="30.65" fill="#acd2fe"/><polygon points="214.57,91.96 214.57,122.60999999999999 183.92,122.60999999999999" fill="#91fff6"/><rect x="214.57" y="91.96" width="30.65" height="30.65" fill="#94fff6"/><polygon points="214.57,91.96 245.22,91.96 245.22,122.60999999999999" fill="#8bfff6"/><rect x="245.22199999999998" y="61.305499999999995" width="61.305499999999995" height="61.305499999999995" fill="#ffffff"/><rect x="245.22" y="61.31" width="30.65" height="30.65" fill="#c5dfff"/><polygon points="275.87,61.31 275.87,91.96000000000001 245.22,91.96000000000001" fill="#a8fff8"/><rect x="275.87" y="61.31" width="30.65" height="30.65" fill="#a5fff8"/><polygon points="275.87,61.31 306.52,61.31 306.52,91.96000000000001" fill="#b9fff9"/><rect x="245.22" y="91.96" width="30.65" height="30.65" fill="#e4f1ff"/><polygon points="245.22,91.96 275.87,122.60999999999999 245.22,122.60999999999999" fill="#a6cffe"/><rect x="275.87" y="91.96" width="30.65" height="30.65" fill="#a7fff8"/><polygon points="275.87,91.96 306.52,122.60999999999999 275.87,122.60999999999999" fill="#eff6ff"/><rect x="306.5275" y="61.305499999999995" width="61.305499999999995" height="61.305499999999995" fill="#ffffff"/><rect x="306.53" y="61.31" width="30.65" height="30.65" fill="#ecf5ff"/><polygon points="337.17999999999995,61.31 337.17999999999995,91.96000000000001 306.53,91.96000000000001" fill="#f9fcff"/><rect x="337.18" y="61.31" width="30.65" height="30.65" fill="#f6faff"/><polygon points="337.18,61.31 367.83,61.31 367.83,91.96000000000001" fill="#95c5fe"/><rect x="306.53" y="91.96" width="30.65" height="30.65" fill="#b8fff9"/><polygon points="306.53,91.96 337.17999999999995,91.96 337.17999999999995,122.60999999999999" fill="#e0eeff"/><rect x="337.18" y="91.96" width="30.65" height="30.65" fill="#94fff6"/><polygon points="337.18,91.96 367.83,91.96 367.83,122.60999999999999" fill="#f8fffe"/><rect x="367.83299999999997" y="61.305499999999995" width="61.305499999999995" height="61.305499999999995" fill="#ffffff"/><rect x="367.83" y="61.31" width="30.65" height="30.65" fill="#9bc9fe"/><polygon points="367.83,61.31 398.47999999999996,91.96000000000001 367.83,91.96000000000001" fill="#dcecff"/><rect x="398.49" y="61.31" width="30.65" height="30.65" fill="#67fff3"/><polygon points="398.49,61.31 429.14,61.31 398.49,91.96000000000001" fill="#cdfffb"/><rect x="367.83" y="91.96" width="30.65" height="30.65" fill="#dbebff"/><polygon points="367.83,91.96 398.47999999999996,122.60999999999999 367.83,122.60999999999999" fill="#b4fff9"/><rect x="398.49" y="91.96" width="30.65" height="30.65" fill="#76fff4"/><polygon points="398.49,91.96 429.14,122.60999999999999 398.49,122.60999999999999" fill="#80bafe"/><rect x="429.13849999999996" y="61.305499999999995" width="61.305499999999995" height="61.305499999999995" fill="#ffffff"/><rect x="429.14" y="61.31" width="30.65" height="30.65" fill="#7dfff4"/><polygon points="429.14,61.31 459.78999999999996,61.31 459.78999999999996,91.96000000000001" fill="#a2ccfe"/><rect x="459.79" y="61.31" width="30.65" height="30.65" fill="#96c6fe"/><polygon points="459.79,61.31 490.44,61.31 459.79,91.96000000000001" fill="#f0fffe"/><rect x="429.14" y="91.96" width="30.65" height="30.65" fill="#dffffc"/><polygon points="429.14,91.96 459.78999999999996,91.96 459.78999999999996,122.60999999999999" fill="#5afff2"/><rect x="459.79" y="91.96" width="30.65" height="30.65" fill="#65fff3"/><polygon points="459.79,91.96 490.44,122.60999999999999 459.79,122.60999999999999" fill="#e2efff"/><rect x="490.44" y="61.31" width="61.31" height="61.31" fill="#bdfffa"/><polygon points="490.44,61.31 551.75,61.31 551.75,122.62" fill="#bedcff"/><rect x="551.75" y="61.31" width="61.31" height="61.31" fill="#a3cdfe"/><polygon points="551.75,61.31 613.06,122.62 551.75,122.62" fill="#dbecff"/><rect x="613.055" y="61.305499999999995" width="61.305499999999995" height="61.305499999999995" fill="#ffffff"/><rect x="613.05" y="61.31" width="30.65" height="30.65" fill="#e3f0ff"/><polygon points="613.05,61.31 643.6999999999999,91.96000000000001 613.05,91.96000000000001" fill="#b5fff9"/><rect x="643.71" y="61.31" width="30.65" height="30.65" fill="#84fff5"/><polygon points="643.71,61.31 674.36,61.31 674.36,91.96000000000001" fill="#ddfffc"/><rect x="613.05" y="91.96" width="30.65" height="30.65" fill="#a9d0fe"/><polygon points="613.05,91.96 643.6999999999999,91.96 613.05,122.60999999999999" fill="#c8fffb"/><rect x="643.71" y="91.96" width="30.65" height="30.65" fill="#a0fff7"/><polygon points="674.36,91.96 674.36,122.60999999999999 643.71,122.60999999999999" fill="#d2e7ff"/><rect x="674.3605" y="61.305499999999995" width="61.305499999999995" height="61.305499999999995" fill="#ffffff"/><rect x="674.36" y="61.31" width="30.65" height="30.65" fill="#82bcfe"/><polygon points="674.36,61.31 705.01,91.96000000000001 674.36,91.96000000000001" fill="#faffff"/><rect x="705.01" y="61.31" width="30.65" height="30.65" fill="#85bdfe"/><polygon points="705.01,61.31 735.66,61.31 705.01,91.96000000000001" fill="#8afff6"/><rect x="674.36" y="91.96" width="30.65" height="30.65" fill="#78fff4"/><polygon points="674.36,91.96 705.01,122.60999999999999 674.36,122.60999999999999" fill="#a3cdfe"/><rect x="705.01" y="91.96" width="30.65" height="30.65" fill="#a6fff8"/><polygon points="705.01,91.96 735.66,91.96 735.66,122.60999999999999" fill="#e6f1ff"/><rect x="0" y="122.61" width="61.31" height="61.31" fill="#7efff5"/><polygon points="0,122.61 61.31,122.61 0,183.92000000000002" fill="#8fc2fe"/><rect x="61.31" y="122.61" width="61.31" height="61.31" fill="#96c6fe"/><polygon points="61.31,122.61 122.62,122.61 61.31,183.92000000000002" fill="#9efff7"/><rect x="122.61" y="122.61" width="61.31" height="61.31" fill="#c1ddff"/><polygon points="122.61,122.61 183.92000000000002,122.61 122.61,183.92000000000002" fill="#54fff1"/><rect x="183.92" y="122.61" width="61.31" height="61.31" fill="#9dcafe"/><polygon points="245.23,122.61 245.23,183.92000000000002 183.92,183.92000000000002" fill="#9dcafe"/><rect x="245.22199999999998" y="122.61099999999999" width="61.305499999999995" height="61.305499999999995" fill="#ffffff"/><rect x="245.22" y="122.61" width="30.65" height="30.65" fill="#d2fffb"/><polygon points="245.22,122.61 275.87,122.61 275.87,153.26" fill="#cee4ff"/><rect x="275.87" y="122.61" width="30.65" height="30.65" fill="#7fbafe"/><polygon points="275.87,122.61 306.52,122.61 275.87,153.26" fill="#c8e1ff"/><rect x="245.22" y="153.26" width="30.65" height="30.65" fill="#7fbafe"/><polygon points="245.22,153.26 275.87,153.26 245.22,183.91" fill="#aafff8"/><rect x="275.87" y="153.26" width="30.65" height="30.65" fill="#eff6ff"/><polygon points="275.87,153.26 306.52,153.26 275.87,183.91" fill="#74fff4"/><rect x="306.5275" y="122.61099999999999" width="61.305499999999995" height="61.305499999999995" fill="#ffffff"/><rect x="306.53" y="122.61" width="30.65" height="30.65" fill="#63fff2"/><polygon points="306.53,122.61 337.17999999999995,122.61 337.17999999999995,153.26" fill="#b0fff9"/><rect x="337.18" y="122.61" width="30.65" height="30.65" fill="#7bfff4"/><polygon points="367.83,122.61 367.83,153.26 337.18,153.26" fill="#62fff2"/><rect x="306.53" y="153.26" width="30.65" height="30.65" fill="#a1ccfe"/><polygon points="306.53,153.26 337.17999999999995,153.26 337.17999999999995,183.91" fill="#b2d5fe"/><rect x="337.18" y="153.26" width="30.65" height="30.65" fill="#d3e7ff"/><polygon points="337.18,153.26 367.83,153.26 337.18,183.91" fill="#effffe"/><rect x="367.83299999999997" y="122.61099999999999" width="61.305499999999995" height="61.305499999999995" fill="#ffffff"/><rect x="367.83" y="122.61" width="30.65" height="30.65" fill="#a7cffe"/><polygon points="367.83,122.61 398.47999999999996,122.61 398.47999999999996,153.26" fill="#70fff3"/><rect x="398.49" y="122.61" width="30.65" height="30.65" fill="#f7faff"/><polygon points="398.49,122.61 429.14,122.61 398.49,153.26" fill="#9cc9fe"/><rect x="367.83" y="153.26" width="30.65" height="30.65" fill="#fcfdff"/><polygon points="367.83,153.26 398.47999999999996,153.26 367.83,183.91" fill="#b6fff9"/><rect x="398.49" y="153.26" width="30.65" height="30.65" fill="#abd1fe"/><polygon points="398.49,153.26 429.14,153.26 398.49,183.91" fill="#94fff6"/><rect x="429.13849999999996" y="122.61099999999999" width="61.305499999999995" height="61.305499999999995" fill="#ffffff"/><rect x="429.14" y="122.61" width="30.65" height="30.65" fill="#8cc1fe"/><polygon points="429.14,122.61 459.78999999999996,122.61 429.14,153.26" fill="#c7fffa"/><rect x="459.79" y="122.61" width="30.65" height="30.65" fill="#97c7fe"/><polygon points="459.79,122.61 490.44,153.26 459.79,153.26" fill="#a1ccfe"/><rect x="429.14" y="153.26" width="30.65" height="30.65" fill="#82bbfe"/><polygon points="459.78999999999996,153.26 459.78999999999996,183.91 429.14,183.91" fill="#acd2fe"/><rect x="459.79" y="153.26" width="30.65" height="30.65" fill="#cee4ff"/><polygon points="459.79,153.26 490.44,183.91 459.79,183.91" fill="#f4f9ff"/><rect x="490.44" y="122.61" width="61.31" height="61.31" fill="#d8eaff"/><polygon points="551.75,122.61 551.75,183.92000000000002 490.44,183.92000000000002" fill="#89fff5"/><rect x="551.75" y="122.61" width="61.31" height="61.31" fill="#afd3fe"/><polygon points="551.75,122.61 613.06,122.61 613.06,183.92000000000002" fill="#bcfffa"/><rect x="613.05" y="122.61" width="61.31" height="61.31" fill="#dfeeff"/><polygon points="674.3599999999999,122.61 674.3599999999999,183.92000000000002 613.05,183.92000000000002" fill="#74fff4"/><rect x="674.3605" y="122.61099999999999" width="61.305499999999995" height="61.305499999999995" fill="#ffffff"/><rect x="674.36" y="122.61" width="30.65" height="30.65" fill="#b3d6fe"/><polygon points="705.01,122.61 705.01,153.26 674.36,153.26" fill="#bddbfe"/><rect x="705.01" y="122.61" width="30.65" height="30.65" fill="#8dfff6"/><polygon points="735.66,122.61 735.66,153.26 705.01,153.26" fill="#9efff7"/><rect x="674.36" y="153.26" width="30.65" height="30.65" fill="#8dc1fe"/><polygon points="674.36,153.26 705.01,183.91 674.36,183.91" fill="#83fff5"/><rect x="705.01" y="153.26" width="30.65" height="30.65" fill="#faffff"/><polygon points="705.01,153.26 735.66,183.91 705.01,183.91" fill="#f0fffe"/><rect x="0" y="183.92" width="61.31" height="61.31" fill="#b5fff9"/><polygon points="0,183.92 61.31,245.23 0,245.23" fill="#95fff6"/><rect x="61.305499999999995" y="183.91649999999998" width="61.305499999999995" height="61.305499999999995" fill="#ffffff"/><rect x="61.31" y="183.92" width="30.65" height="30.65" fill="#85fff5"/><polygon points="61.31,183.92 91.96000000000001,183.92 61.31,214.57" fill="#e9f3ff"/><rect x="91.96" y="183.92" width="30.65" height="30.65" fill="#bbfff9"/><polygon points="91.96,183.92 122.60999999999999,183.92 122.60999999999999,214.57" fill="#84bcfe"/><rect x="61.31" y="214.57" width="30.65" height="30.65" fill="#59fff2"/><polygon points="61.31,214.57 91.96000000000001,245.22 61.31,245.22" fill="#cfe5ff"/><rect x="91.96" y="214.57" width="30.65" height="30.65" fill="#badafe"/><polygon points="91.96,214.57 122.60999999999999,245.22 91.96,245.22" fill="#56fff1"/><rect x="122.61099999999999" y="183.91649999999998" width="61.305499999999995" height="61.305499999999995" fill="#ffffff"/><rect x="122.61" y="183.92" width="30.65" height="30.65" fill="#edfffe"/><polygon points="153.26,183.92 153.26,214.57 122.61,214.57" fill="#bedcff"/><rect x="153.26" y="183.92" width="30.65" height="30.65" fill="#6dfff3"/><polygon points="153.26,183.92 183.91,214.57 153.26,214.57" fill="#65fff3"/><rect x="122.61" y="214.57" width="30.65" height="30.65" fill="#66fff3"/><polygon points="122.61,214.57 153.26,214.57 122.61,245.22" fill="#b3d6fe"/><rect x="153.26" y="214.57" width="30.65" height="30.65" fill="#b7fff9"/><polygon points="153.26,214.57 183.91,214.57 153.26,245.22" fill="#7cb8fe"/><rect x="183.92" y="183.92" width="61.31" height="61.31" fill="#d5fffc"/><polygon points="183.92,183.92 245.23,183.92 245.23,245.23" fill="#b4fff9"/><rect x="245.22" y="183.92" width="61.31" height="61.31" fill="#63fff2"/><polygon points="306.53,183.92 306.53,245.23 245.22,245.23" fill="#fdfeff"/><rect x="306.53" y="183.92" width="61.31" height="61.31" fill="#f0fffe"/><polygon points="306.53,183.92 367.84,183.92 367.84,245.23" fill="#9efff7"/><rect x="367.83299999999997" y="183.91649999999998" width="61.305499999999995" height="61.305499999999995" fill="#ffffff"/><rect x="367.83" y="183.92" width="30.65" height="30.65" fill="#c1fffa"/><polygon points="367.83,183.92 398.47999999999996,183.92 367.83,214.57" fill="#c3deff"/><rect x="398.49" y="183.92" width="30.65" height="30.65" fill="#9ecafe"/><polygon points="398.49,183.92 429.14,183.92 398.49,214.57" fill="#e7f2ff"/><rect x="367.83" y="214.57" width="30.65" height="30.65" fill="#e3f0ff"/><polygon points="367.83,214.57 398.47999999999996,245.22 367.83,245.22" fill="#88fff5"/><rect x="398.49" y="214.57" width="30.65" height="30.65" fill="#cdfffb"/><polygon points="398.49,214.57 429.14,214.57 398.49,245.22" fill="#94c5fe"/><rect x="429.14" y="183.92" width="61.31" height="61.31" fill="#93c5fe"/><polygon points="490.45,183.92 490.45,245.23 429.14,245.23" fill="#c0ddff"/><rect x="490.44399999999996" y="183.91649999999998" width="61.305499999999995" height="61.305499999999995" fill="#ffffff"/><rect x="490.44" y="183.92" width="30.65" height="30.65" fill="#82bbfe"/><polygon points="490.44,183.92 521.09,183.92 521.09,214.57" fill="#bddbfe"/><rect x="521.1" y="183.92" width="30.65" height="30.65" fill="#56fff1"/><polygon points="521.1,183.92 551.75,183.92 521.1,214.57" fill="#cde4ff"/><rect x="490.44" y="214.57" width="30.65" height="30.65" fill="#5cfff2"/><polygon points="521.09,214.57 521.09,245.22 490.44,245.22" fill="#cae2ff"/><rect x="521.1" y="214.57" width="30.65" height="30.65" fill="#f4f9ff"/><polygon points="521.1,214.57 551.75,214.57 551.75,245.22" fill="#86fff5"/><rect x="551.75" y="183.92" width="61.31" height="61.31" fill="#89bffe"/><polygon points="613.06,183.92 613.06,245.23 551.75,245.23" fill="#d6e9ff"/><rect x="613.05" y="183.92" width="61.31" height="61.31" fill="#52fff1"/><polygon points="674.3599999999999,183.92 674.3599999999999,245.23 613.05,245.23" fill="#94c5fe"/><rect x="674.3605" y="183.91649999999998" width="61.305499999999995" height="61.305499999999995" fill="#ffffff"/><rect x="674.36" y="183.92" width="30.65" height="30.65" fill="#5afff2"/><polygon points="674.36,183.92 705.01,214.57 674.36,214.57" fill="#65fff3"/><rect x="705.01" y="183.92" width="30.65" height="30.65" fill="#64fff2"/><polygon points="735.66,183.92 735.66,214.57 705.01,214.57" fill="#f0f7ff"/><rect x="674.36" y="214.57" width="30.65" height="30.65" fill="#80bafe"/><polygon points="674.36,214.57 705.01,214.57 705.01,245.22" fill="#b6fff9"/><rect x="705.01" y="214.57" width="30.65" height="30.65" fill="#a0fff7"/><polygon points="705.01,214.57 735.66,245.22 705.01,245.22" fill="#99c8fe"/><rect x="0" y="245.22" width="61.31" height="61.31" fill="#6afff3"/><polygon points="0,245.22 61.31,245.22 61.31,306.53" fill="#7bfff4"/><rect x="61.31" y="245.22" width="61.31" height="61.31" fill="#9cfff7"/><polygon points="61.31,245.22 122.62,245.22 122.62,306.53" fill="#a1fff7"/><rect x="122.61" y="245.22" width="61.31" height="61.31" fill="#e4fffd"/><polygon points="122.61,245.22 183.92000000000002,245.22 183.92000000000002,306.53" fill="#90fff6"/><rect x="183.92" y="245.22" width="61.31" height="61.31" fill="#8bc0fe"/><polygon points="183.92,245.22 245.23,245.22 245.23,306.53" fill="#e1efff"/><rect x="245.22" y="245.22" width="61.31" height="61.31" fill="#e4f0ff"/><polygon points="245.22,245.22 306.53,245.22 306.53,306.53" fill="#a6cffe"/><rect x="306.53" y="245.22" width="61.31" height="61.31" fill="#a5fff8"/><polygon points="306.53,245.22 367.84,245.22 306.53,306.53" fill="#bafff9"/><rect x="367.83299999999997" y="245.22199999999998" width="61.305499999999995" height="61.305499999999995" fill="#ffffff"/><rect x="367.83" y="245.22" width="30.65" height="30.65" fill="#77fff4"/><polygon points="367.83,245.22 398.47999999999996,275.87 367.83,275.87" fill="#87befe"/><rect x="398.49" y="245.22" width="30.65" height="30.65" fill="#7dfff4"/><polygon points="429.14,245.22 429.14,275.87 398.49,275.87" fill="#a5cefe"/><rect x="367.83" y="275.87" width="30.65" height="30.65" fill="#e4f0ff"/><polygon points="367.83,275.87 398.47999999999996,275.87 398.47999999999996,306.52" fill="#b8fff9"/><rect x="398.49" y="275.87" width="30.65" height="30.65" fill="#8fc3fe"/><polygon points="429.14,275.87 429.14,306.52 398.49,306.52" fill="#73fff4"/><rect x="429.13849999999996" y="245.22199999999998" width="61.305499999999995" height="61.305499999999995" fill="#ffffff"/><rect x="429.14" y="245.22" width="30.65" height="30.65" fill="#f7fffe"/><polygon points="429.14,245.22 459.78999999999996,245.22 459.78999999999996,275.87" fill="#c7e1ff"/><rect x="459.79" y="245.22" width="30.65" height="30.65" fill="#eafffd"/><polygon points="459.79,245.22 490.44,275.87 459.79,275.87" fill="#a1fff7"/><rect x="429.14" y="275.87" width="30.65" height="30.65" fill="#75fff4"/><polygon points="429.14,275.87 459.78999999999996,306.52 429.14,306.52" fill="#e0fffd"/><rect x="459.79" y="275.87" width="30.65" height="30.65" fill="#59fff2"/><polygon points="459.79,275.87 490.44,275.87 490.44,306.52" fill="#cae2ff"/><rect x="490.44399999999996" y="245.22199999999998" width="61.305499999999995" height="61.305499999999995" fill="#ffffff"/><rect x="490.44" y="245.22" width="30.65" height="30.65" fill="#dbebff"/><polygon points="521.09,245.22 521.09,275.87 490.44,275.87" fill="#b7fff9"/><rect x="521.1" y="245.22" width="30.65" height="30.65" fill="#d5e8ff"/><polygon points="521.1,245.22 551.75,275.87 521.1,275.87" fill="#74fff4"/><rect x="490.44" y="275.87" width="30.65" height="30.65" fill="#94fff6"/><polygon points="490.44,275.87 521.09,275.87 490.44,306.52" fill="#eafffd"/><rect x="521.1" y="275.87" width="30.65" height="30.65" fill="#edfffe"/><polygon points="521.1,275.87 551.75,275.87 521.1,306.52" fill="#d3e7ff"/><rect x="551.7494999999999" y="245.22199999999998" width="61.305499999999995" height="61.305499999999995" fill="#ffffff"/><rect x="551.75" y="245.22" width="30.65" height="30.65" fill="#cee4ff"/><polygon points="551.75,245.22 582.4,245.22 551.75,275.87" fill="#f4fffe"/><rect x="582.4" y="245.22" width="30.65" height="30.65" fill="#d9fffc"/><polygon points="613.05,245.22 613.05,275.87 582.4,275.87" fill="#c7e1ff"/><rect x="551.75" y="275.87" width="30.65" height="30.65" fill="#adfff8"/><polygon points="551.75,275.87 582.4,306.52 551.75,306.52" fill="#dbecff"/><rect x="582.4" y="275.87" width="30.65" height="30.65" fill="#67fff3"/><polygon points="613.05,275.87 613.05,306.52 582.4,306.52" fill="#65fff3"/><rect x="613.055" y="245.22199999999998" width="61.305499999999995" height="61.305499999999995" fill="#ffffff"/><rect x="613.05" y="245.22" width="30.65" height="30.65" fill="#cde4ff"/><polygon points="643.6999999999999,245.22 643.6999999999999,275.87 613.05,275.87" fill="#c1fffa"/><rect x="643.71" y="245.22" width="30.65" height="30.65" fill="#a0ccfe"/><polygon points="643.71,245.22 674.36,275.87 643.71,275.87" fill="#b2fff9"/><rect x="613.05" y="275.87" width="30.65" height="30.65" fill="#8bfff6"/><polygon points="643.6999999999999,275.87 643.6999999999999,306.52 613.05,306.52" fill="#a7fff8"/><rect x="643.71" y="275.87" width="30.65" height="30.65" fill="#f7fffe"/><polygon points="643.71,275.87 674.36,306.52 643.71,306.52" fill="#b7d8fe"/><rect x="674.3605" y="245.22199999999998" width="61.305499999999995" height="61.305499999999995" fill="#ffffff"/><rect x="674.36" y="245.22" width="30.65" height="30.65" fill="#edfffe"/><polygon points="674.36,245.22 705.01,245.22 674.36,275.87" fill="#e4fffd"/><rect x="705.01" y="245.22" width="30.65" height="30.65" fill="#cafffb"/><polygon points="705.01,245.22 735.66,275.87 705.01,275.87" fill="#fefeff"/><rect x="674.36" y="275.87" width="30.65" height="30.65" fill="#fefeff"/><polygon points="674.36,275.87 705.01,275.87 705.01,306.52" fill="#7efff5"/><rect x="705.01" y="275.87" width="30.65" height="30.65" fill="#86fff5"/><polygon points="735.66,275.87 735.66,306.52 705.01,306.52" fill="#a7cffe"/><rect x="0" y="306.5275" width="61.305499999999995" height="61.305499999999995" fill="#ffffff"/><rect x="0" y="306.53" width="30.65" height="30.65" fill="#7afff4"/><polygon points="30.65,306.53 30.65,337.17999999999995 0,337.17999999999995" fill="#c9fffb"/><rect x="30.65" y="306.53" width="30.65" height="30.65" fill="#a3cdfe"/><polygon points="30.65,306.53 61.3,337.17999999999995 30.65,337.17999999999995" fill="#fcfdff"/><rect x="0" y="337.18" width="30.65" height="30.65" fill="#ddfffc"/><polygon points="30.65,337.18 30.65,367.83 0,367.83" fill="#c2fffa"/><rect x="30.65" y="337.18" width="30.65" height="30.65" fill="#82fff5"/><polygon points="30.65,337.18 61.3,337.18 30.65,367.83" fill="#90fff6"/><rect x="61.31" y="306.53" width="61.31" height="61.31" fill="#cdfffb"/><polygon points="61.31,306.53 122.62,306.53 61.31,367.84" fill="#cee5ff"/><rect x="122.61" y="306.53" width="61.31" height="61.31" fill="#cfe5ff"/><polygon points="122.61,306.53 183.92000000000002,306.53 122.61,367.84" fill="#88fff5"/><rect x="183.91649999999998" y="306.5275" width="61.305499999999995" height="61.305499999999995" fill="#ffffff"/><rect x="183.92" y="306.53" width="30.65" height="30.65" fill="#5efff2"/><polygon points="214.57,306.53 214.57,337.17999999999995 183.92,337.17999999999995" fill="#f3f8ff"/><rect x="214.57" y="306.53" width="30.65" height="30.65" fill="#d8fffc"/><polygon points="214.57,306.53 245.22,337.17999999999995 214.57,337.17999999999995" fill="#dbebff"/><rect x="183.92" y="337.18" width="30.65" height="30.65" fill="#61fff2"/><polygon points="183.92,337.18 214.57,337.18 183.92,367.83" fill="#8cc1fe"/><rect x="214.57" y="337.18" width="30.65" height="30.65" fill="#8ffff6"/><polygon points="214.57,337.18 245.22,337.18 245.22,367.83" fill="#e7f2ff"/><rect x="245.22" y="306.53" width="61.31" height="61.31" fill="#cce3ff"/><polygon points="306.53,306.53 306.53,367.84 245.22,367.84" fill="#d1e6ff"/><rect x="306.5275" y="306.5275" width="61.305499999999995" height="61.305499999999995" fill="#ffffff"/><rect x="306.53" y="306.53" width="30.65" height="30.65" fill="#eefffe"/><polygon points="306.53,306.53 337.17999999999995,306.53 306.53,337.17999999999995" fill="#d9ebff"/><rect x="337.18" y="306.53" width="30.65" height="30.65" fill="#c5fffa"/><polygon points="337.18,306.53 367.83,306.53 337.18,337.17999999999995" fill="#b7fff9"/><rect x="306.53" y="337.18" width="30.65" height="30.65" fill="#cce4ff"/><polygon points="306.53,337.18 337.17999999999995,337.18 306.53,367.83" fill="#f2f8ff"/><rect x="337.18" y="337.18" width="30.65" height="30.65" fill="#9efff7"/><polygon points="337.18,337.18 367.83,337.18 367.83,367.83" fill="#7cfff4"/><rect x="367.83299999999997" y="306.5275" width="61.305499999999995" height="61.305499999999995" fill="#ffffff"/><rect x="367.83" y="306.53" width="30.65" height="30.65" fill="#b9fff9"/><polygon points="367.83,306.53 398.47999999999996,306.53 367.83,337.17999999999995" fill="#54fff1"/><rect x="398.49" y="306.53" width="30.65" height="30.65" fill="#ffffff"/><polygon points="429.14,306.53 429.14,337.17999999999995 398.49,337.17999999999995" fill="#8ec2fe"/><rect x="367.83" y="337.18" width="30.65" height="30.65" fill="#84bcfe"/><polygon points="398.47999999999996,337.18 398.47999999999996,367.83 367.83,367.83" fill="#c3fffa"/><rect x="398.49" y="337.18" width="30.65" height="30.65" fill="#9dcafe"/><polygon points="398.49,337.18 429.14,367.83 398.49,367.83" fill="#96c6fe"/><rect x="429.13849999999996" y="306.5275" width="61.305499999999995" height="61.305499999999995" fill="#ffffff"/><rect x="429.14" y="306.53" width="30.65" height="30.65" fill="#9dfff7"/><polygon points="429.14,306.53 459.78999999999996,306.53 429.14,337.17999999999995" fill="#8ffff6"/><rect x="459.79" y="306.53" width="30.65" height="30.65" fill="#86fff5"/><polygon points="459.79,306.53 490.44,306.53 459.79,337.17999999999995" fill="#84bcfe"/><rect x="429.14" y="337.18" width="30.65" height="30.65" fill="#d1e6ff"/><polygon points="429.14,337.18 459.78999999999996,367.83 429.14,367.83" fill="#80bafe"/><rect x="459.79" y="337.18" width="30.65" height="30.65" fill="#b6d7fe"/><polygon points="459.79,337.18 490.44,337.18 459.79,367.83" fill="#a3cdfe"/><rect x="490.44399999999996" y="306.5275" width="61.305499999999995" height="61.305499999999995" fill="#ffffff"/><rect x="490.44" y="306.53" width="30.65" height="30.65" fill="#5dfff2"/><polygon points="490.44,306.53 521.09,306.53 490.44,337.17999999999995" fill="#d6fffc"/><rect x="521.1" y="306.53" width="30.65" height="30.65" fill="#daebff"/><polygon points="521.1,306.53 551.75,306.53 551.75,337.17999999999995" fill="#c7fffa"/><rect x="490.44" y="337.18" width="30.65" height="30.65" fill="#cee4ff"/><polygon points="490.44,337.18 521.09,337.18 490.44,367.83" fill="#f4f9ff"/><rect x="521.1" y="337.18" width="30.65" height="30.65" fill="#bad9fe"/><polygon points="521.1,337.18 551.75,337.18 551.75,367.83" fill="#97c7fe"/><rect x="551.75" y="306.53" width="61.31" height="61.31" fill="#b8d8fe"/><polygon points="613.06,306.53 613.06,367.84 551.75,367.84" fill="#cefffb"/><rect x="613.055" y="306.5275" width="61.305499999999995" height="61.305499999999995" fill="#ffffff"/><rect x="613.05" y="306.53" width="30.65" height="30.65" fill="#a4cefe"/><polygon points="613.05,306.53 643.6999999999999,306.53 643.6999999999999,337.17999999999995" fill="#c4dfff"/><rect x="643.71" y="306.53" width="30.65" height="30.65" fill="#faffff"/><polygon points="643.71,306.53 674.36,337.17999999999995 643.71,337.17999999999995" fill="#b4d7fe"/><rect x="613.05" y="337.18" width="30.65" height="30.65" fill="#e7fffd"/><polygon points="613.05,337.18 643.6999999999999,337.18 613.05,367.83" fill="#eff6ff"/><rect x="643.71" y="337.18" width="30.65" height="30.65" fill="#aafff8"/><polygon points="643.71,337.18 674.36,337.18 643.71,367.83" fill="#effffe"/><rect x="674.36" y="306.53" width="61.31" height="61.31" fill="#58fff1"/><polygon points="674.36,306.53 735.6700000000001,367.84 674.36,367.84" fill="#b0fff9"/><rect x="0" y="367.83" width="61.31" height="61.31" fill="#63fff2"/><polygon points="61.31,367.83 61.31,429.14 0,429.14" fill="#a9d1fe"/><rect x="61.31" y="367.83" width="61.31" height="61.31" fill="#f1fffe"/><polygon points="61.31,367.83 122.62,429.14 61.31,429.14" fill="#57fff1"/><rect x="122.61" y="367.83" width="61.31" height="61.31" fill="#ebf4ff"/><polygon points="122.61,367.83 183.92000000000002,367.83 122.61,429.14" fill="#abd1fe"/><rect x="183.92" y="367.83" width="61.31" height="61.31" fill="#cffffb"/><polygon points="183.92,367.83 245.23,367.83 245.23,429.14" fill="#89bffe"/><rect x="245.22199999999998" y="367.83299999999997" width="61.305499999999995" height="61.305499999999995" fill="#ffffff"/><rect x="245.22" y="367.83" width="30.65" height="30.65" fill="#93c4fe"/><polygon points="245.22,367.83 275.87,367.83 245.22,398.47999999999996" fill="#dcecff"/><rect x="275.87" y="367.83" width="30.65" height="30.65" fill="#b4fff9"/><polygon points="306.52,367.83 306.52,398.47999999999996 275.87,398.47999999999996" fill="#b5d7fe"/><rect x="245.22" y="398.49" width="30.65" height="30.65" fill="#77fff4"/><polygon points="245.22,398.49 275.87,398.49 245.22,429.14" fill="#b3d6fe"/><rect x="275.87" y="398.49" width="30.65" height="30.65" fill="#61fff2"/><polygon points="275.87,398.49 306.52,429.14 275.87,429.14" fill="#afd4fe"/><rect x="306.5275" y="367.83299999999997" width="61.305499999999995" height="61.305499999999995" fill="#ffffff"/><rect x="306.53" y="367.83" width="30.65" height="30.65" fill="#59fff2"/><polygon points="306.53,367.83 337.17999999999995,367.83 337.17999999999995,398.47999999999996" fill="#95c6fe"/><rect x="337.18" y="367.83" width="30.65" height="30.65" fill="#c7e1ff"/><polygon points="337.18,367.83 367.83,398.47999999999996 337.18,398.47999999999996" fill="#74fff4"/><rect x="306.53" y="398.49" width="30.65" height="30.65" fill="#bffffa"/><polygon points="337.17999999999995,398.49 337.17999999999995,429.14 306.53,429.14" fill="#daebff"/><rect x="337.18" y="398.49" width="30.65" height="30.65" fill="#e5fffd"/><polygon points="337.18,398.49 367.83,429.14 337.18,429.14" fill="#a0fff7"/><rect x="367.83299999999997" y="367.83299999999997" width="61.305499999999995" height="61.305499999999995" fill="#ffffff"/><rect x="367.83" y="367.83" width="30.65" height="30.65" fill="#eefffe"/><polygon points="367.83,367.83 398.47999999999996,367.83 367.83,398.47999999999996" fill="#b5fff9"/><rect x="398.49" y="367.83" width="30.65" height="30.65" fill="#70fff3"/><polygon points="398.49,367.83 429.14,367.83 429.14,398.47999999999996" fill="#a4fff8"/><rect x="367.83" y="398.49" width="30.65" height="30.65" fill="#ccfffb"/><polygon points="367.83,398.49 398.47999999999996,398.49 398.47999999999996,429.14" fill="#b3fff9"/><rect x="398.49" y="398.49" width="30.65" height="30.65" fill="#f3fffe"/><polygon points="398.49,398.49 429.14,429.14 398.49,429.14" fill="#e9f3ff"/><rect x="429.13849999999996" y="367.83299999999997" width="61.305499999999995" height="61.305499999999995" fill="#ffffff"/><rect x="429.14" y="367.83" width="30.65" height="30.65" fill="#dcfffc"/><polygon points="459.78999999999996,367.83 459.78999999999996,398.47999999999996 429.14,398.47999999999996" fill="#d8fffc"/><rect x="459.79" y="367.83" width="30.65" height="30.65" fill="#b8d8fe"/><polygon points="459.79,367.83 490.44,367.83 490.44,398.47999999999996" fill="#e9fffd"/><rect x="429.14" y="398.49" width="30.65" height="30.65" fill="#9afff7"/><polygon points="459.78999999999996,398.49 459.78999999999996,429.14 429.14,429.14" fill="#affff9"/><rect x="459.79" y="398.49" width="30.65" height="30.65" fill="#d2fffb"/><polygon points="459.79,398.49 490.44,398.49 490.44,429.14" fill="#b7fff9"/><rect x="490.44399999999996" y="367.83299999999997" width="61.305499999999995" height="61.305499999999995" fill="#ffffff"/><rect x="490.44" y="367.83" width="30.65" height="30.65" fill="#f5faff"/><polygon points="490.44,367.83 521.09,398.47999999999996 490.44,398.47999999999996" fill="#55fff1"/><rect x="521.1" y="367.83" width="30.65" height="30.65" fill="#e1fffd"/><polygon points="521.1,367.83 551.75,398.47999999999996 521.1,398.47999999999996" fill="#acfff8"/><rect x="490.44" y="398.49" width="30.65" height="30.65" fill="#78fff4"/><polygon points="490.44,398.49 521.09,398.49 490.44,429.14" fill="#cae2ff"/><rect x="521.1" y="398.49" width="30.65" height="30.65" fill="#d9eaff"/><polygon points="521.1,398.49 551.75,429.14 521.1,429.14" fill="#eefffe"/><rect x="551.7494999999999" y="367.83299999999997" width="61.305499999999995" height="61.305499999999995" fill="#ffffff"/><rect x="551.75" y="367.83" width="30.65" height="30.65" fill="#a2cdfe"/><polygon points="551.75,367.83 582.4,367.83 582.4,398.47999999999996" fill="#d8fffc"/><rect x="582.4" y="367.83" width="30.65" height="30.65" fill="#d4e8ff"/><polygon points="582.4,367.83 613.05,367.83 582.4,398.47999999999996" fill="#f4fffe"/><rect x="551.75" y="398.49" width="30.65" height="30.65" fill="#66fff3"/><polygon points="551.75,398.49 582.4,398.49 551.75,429.14" fill="#88befe"/><rect x="582.4" y="398.49" width="30.65" height="30.65" fill="#8dc1fe"/><polygon points="613.05,398.49 613.05,429.14 582.4,429.14" fill="#85fff5"/><rect x="613.055" y="367.83299999999997" width="61.305499999999995" height="61.305499999999995" fill="#ffffff"/><rect x="613.05" y="367.83" width="30.65" height="30.65" fill="#b3d6fe"/><polygon points="613.05,367.83 643.6999999999999,398.47999999999996 613.05,398.47999999999996" fill="#90fff6"/><rect x="643.71" y="367.83" width="30.65" height="30.65" fill="#cffffb"/><polygon points="674.36,367.83 674.36,398.47999999999996 643.71,398.47999999999996" fill="#f9ffff"/><rect x="613.05" y="398.49" width="30.65" height="30.65" fill="#bbfff9"/><polygon points="613.05,398.49 643.6999999999999,429.14 613.05,429.14" fill="#93c4fe"/><rect x="643.71" y="398.49" width="30.65" height="30.65" fill="#c5fffa"/><polygon points="643.71,398.49 674.36,429.14 643.71,429.14" fill="#c4dfff"/><rect x="674.36" y="367.83" width="61.31" height="61.31" fill="#cfe5ff"/><polygon points="674.36,367.83 735.6700000000001,367.83 674.36,429.14" fill="#b2d5fe"/></g></svg>